<svg width="57" height="57" viewBox="0 0 27 26" fill="none" xmlns="http://www.w3.org/2000/svg">
<path d="M24.6666 11.3333H6.04996L14.1833 3.2C14.8333 2.55 14.8333 1.48333 14.1833 0.833331C14.0291 0.678825 13.846 0.556245 13.6443 0.47261C13.4427 0.388974 13.2266 0.345924 13.0083 0.345924C12.79 0.345924 12.5739 0.388974 12.3722 0.47261C12.1706 0.556245 11.9875 0.678825 11.8333 0.833331L0.849956 11.8167C0.69545 11.9709 0.572871 12.154 0.489235 12.3556C0.405599 12.5572 0.362549 12.7734 0.362549 12.9917C0.362549 13.2099 0.405599 13.4261 0.489235 13.6277C0.572871 13.8293 0.69545 14.0125 0.849956 14.1667L11.8333 25.15C11.9876 25.3043 12.1708 25.4267 12.3724 25.5102C12.574 25.5937 12.7901 25.6367 13.0083 25.6367C13.2265 25.6367 13.4426 25.5937 13.6442 25.5102C13.8458 25.4267 14.029 25.3043 14.1833 25.15C14.3376 24.9957 14.46 24.8125 14.5435 24.6109C14.627 24.4093 14.67 24.1932 14.67 23.975C14.67 23.7568 14.627 23.5407 14.5435 23.3391C14.46 23.1375 14.3376 22.9543 14.1833 22.8L6.04996 14.6667H24.6666C25.5833 14.6667 26.3333 13.9167 26.3333 13C26.3333 12.0833 25.5833 11.3333 24.6666 11.3333Z" fill="#3B97CB"/>
</svg>
