<svg width="24" height="24" viewBox="0 0 24 24" fill="none" xmlns="http://www.w3.org/2000/svg">
<path fill-rule="evenodd" clip-rule="evenodd" d="M20.53 4.53003C20.6625 4.38785 20.7346 4.19981 20.7312 4.00551C20.7277 3.81121 20.649 3.62582 20.5116 3.48841C20.3742 3.35099 20.1888 3.27228 19.9945 3.26885C19.8002 3.26543 19.6122 3.33755 19.47 3.47003L3.47 19.47C3.39631 19.5387 3.33721 19.6215 3.29622 19.7135C3.25523 19.8055 3.23319 19.9048 3.23141 20.0055C3.22963 20.1062 3.24816 20.2062 3.28588 20.2996C3.3236 20.393 3.37974 20.4778 3.45096 20.5491C3.52218 20.6203 3.60702 20.6764 3.7004 20.7142C3.79379 20.7519 3.89382 20.7704 3.99452 20.7686C4.09523 20.7668 4.19454 20.7448 4.28654 20.7038C4.37854 20.6628 4.46134 20.6037 4.53 20.53L7.565 17.495C8.883 18.103 10.392 18.5 12 18.5C14.618 18.5 16.972 17.449 18.668 16.147C19.518 15.495 20.215 14.771 20.703 14.067C21.183 13.375 21.5 12.649 21.5 12C21.5 11.351 21.183 10.625 20.703 9.93403C20.215 9.22903 19.518 8.50503 18.668 7.85403C18.398 7.64603 18.11 7.44403 17.808 7.25303L20.53 4.53003ZM15.13 9.93203L14.03 11.03C14.2305 11.4499 14.2959 11.9216 14.2173 12.3802C14.1386 12.8388 13.9197 13.2617 13.5907 13.5907C13.2617 13.9197 12.8387 14.1386 12.3802 14.2173C11.9216 14.296 11.4499 14.2306 11.03 14.03L9.93 15.13C10.6511 15.6075 11.5151 15.821 12.3757 15.7344C13.2362 15.6479 14.0403 15.2665 14.6519 14.6549C15.2635 14.0434 15.6448 13.2392 15.7314 12.3787C15.818 11.5182 15.6045 10.6542 15.127 9.93303L15.13 9.93203Z" fill="#C4C4C4"/>
<path d="M12.67 8.31C12.7111 8.31771 12.7535 8.31537 12.7936 8.30318C12.8336 8.29099 12.8701 8.26932 12.9 8.24L14.85 6.29C14.8803 6.26019 14.9023 6.22294 14.9137 6.18198C14.9251 6.14102 14.9256 6.09779 14.915 6.05659C14.9045 6.0154 14.8834 5.97769 14.8537 5.94722C14.824 5.91676 14.7869 5.89462 14.746 5.883C13.8523 5.63112 12.9285 5.50226 12 5.5C9.382 5.5 7.028 6.551 5.332 7.853C4.482 8.505 3.785 9.229 3.296 9.933C2.816 10.625 2.5 11.351 2.5 12C2.5 12.649 2.817 13.375 3.296 14.066C3.77186 14.7339 4.33408 15.3358 4.968 15.856C5.01544 15.8952 5.07584 15.9152 5.13731 15.9121C5.19877 15.9089 5.25682 15.8828 5.3 15.839L8.24 12.899C8.26932 12.8691 8.29099 12.8326 8.30318 12.7926C8.31537 12.7525 8.31771 12.7101 8.31 12.669C8.20163 12.0726 8.23945 11.4588 8.42022 10.8803C8.60099 10.3017 8.91932 9.77555 9.34794 9.34694C9.77655 8.91832 10.3027 8.59999 10.8813 8.41922C11.4598 8.23845 12.0736 8.20063 12.67 8.309V8.31Z" fill="#C4C4C4"/>
</svg>
