<svg width="24" height="24" viewBox="0 0 46 47" xmlns="http://www.w3.org/2000/svg">
<path d="M26.398 42.5522H19.4451C18.5476 42.5522 17.771 41.9276 17.5789 41.0509L16.8015 37.4522C15.7644 36.9978 14.781 36.4295 13.8695 35.7579L10.3606 36.8753C9.50482 37.1482 8.57456 36.788 8.1257 36.01L4.64163 29.9912C4.19769 29.2129 4.35063 28.231 5.01028 27.6246L7.73222 25.1414C7.60843 24.0165 7.60843 22.8815 7.73222 21.7566L5.01028 19.2792C4.34966 18.6725 4.19666 17.6894 4.64163 16.9106L8.11806 10.888C8.56692 10.11 9.49718 9.74981 10.3529 10.0227L13.8618 11.1401C14.328 10.7947 14.8133 10.4758 15.3154 10.1851C15.7974 9.91324 16.2935 9.66712 16.8015 9.44775L17.5809 5.85288C17.772 4.97607 18.5477 4.35055 19.4451 4.34961H26.398C27.2954 4.35055 28.0712 4.97607 28.2623 5.85288L29.0493 9.44966C29.5856 9.68559 30.1079 9.95218 30.6137 10.2481C31.0853 10.5209 31.5413 10.82 31.9794 11.1439L35.4902 10.0265C36.3454 9.75465 37.2745 10.1147 37.7232 10.8918L41.1996 16.9144C41.6436 17.6928 41.4906 18.6747 40.831 19.2811L38.109 21.7643C38.2328 22.8891 38.2328 24.0242 38.109 25.149L40.831 27.6322C41.4906 28.2386 41.6436 29.2205 41.1996 29.9988L37.7232 36.0215C37.2745 36.7986 36.3454 37.1586 35.4902 36.8868L31.9794 35.7693C31.5352 36.0965 31.0735 36.3994 30.5965 36.6767C30.0957 36.9668 29.5792 37.2289 29.0493 37.4617L28.2623 41.0509C28.0704 41.9269 27.2948 42.5515 26.398 42.5522ZM14.5552 31.5289L16.1215 32.6749C16.4746 32.935 16.8426 33.1742 17.2237 33.3912C17.5822 33.5989 17.9514 33.7876 18.3296 33.9566L20.1118 34.7379L20.9847 38.732H24.8623L25.7352 34.736L27.5174 33.9547C28.2954 33.6116 29.0338 33.1851 29.7197 32.6826L31.288 31.5365L35.1865 32.7781L37.1253 29.4201L34.1016 26.6638L34.3155 24.7307C34.4095 23.8852 34.4095 23.0319 34.3155 22.1864L34.1016 20.2534L37.1272 17.4913L35.1865 14.1314L31.288 15.373L29.7197 14.2269C29.0336 13.7221 28.2952 13.2924 27.5174 12.9452L25.7352 12.164L24.8623 8.16987H20.9847L20.108 12.1659L18.3296 12.9452C17.951 13.1115 17.5818 13.2983 17.2237 13.5049C16.8449 13.7213 16.4789 13.9592 16.1272 14.2173L14.559 15.3634L10.6624 14.1218L8.71976 17.4913L11.7435 20.2438L11.5296 22.1788C11.4356 23.0243 11.4356 23.8776 11.5296 24.7231L11.7435 26.6561L8.71976 29.4124L10.6585 32.7704L14.5552 31.5289ZM22.9139 31.0914C18.6942 31.0914 15.2734 27.6707 15.2734 23.4509C15.2734 19.2312 18.6942 15.8104 22.9139 15.8104C27.1337 15.8104 30.5545 19.2312 30.5545 23.4509C30.5492 27.6685 27.1315 31.0862 22.9139 31.0914ZM22.9139 19.6307C20.8269 19.6328 19.1278 21.3094 19.0979 23.3962C19.068 25.483 20.7184 27.2076 22.8045 27.2695C24.8906 27.3314 26.6403 25.7077 26.7342 23.6228V24.3869V23.4509C26.7342 21.341 25.0238 19.6307 22.9139 19.6307Z" />
</svg>
