<svg width="46" height="46" viewBox="0 0 46 46" xmlns="http://www.w3.org/2000/svg">
<path d="M34.3824 38.2028H5.73044C5.22348 38.2079 4.73594 38.0079 4.3787 37.6482C4.02146 37.2884 3.82489 36.7995 3.83368 36.2926H3.82031V9.55073C3.82031 7.44086 5.5307 5.73047 7.64057 5.73047H19.1014C19.528 5.73088 19.9422 5.87411 20.278 6.13733L24.6407 9.55073H34.3824C36.4923 9.55073 38.2027 11.2611 38.2027 13.371V21.0115H40.1128C40.7549 21.0116 41.3539 21.3342 41.7073 21.8703C42.0607 22.4064 42.1212 23.0841 41.8682 23.6742L36.1378 37.0452C35.8368 37.7473 35.1464 38.2028 34.3824 38.2028ZM12.7215 24.8318L8.62811 34.3824H33.1236L37.217 24.8318H12.7215ZM7.64057 13.371V26.9902L9.70543 22.1691C10.0064 21.4669 10.6969 21.0116 11.4608 21.0115H34.3824V13.371H7.64057Z" />
</svg>
